# xmcd
#
# Track frame offsets: 
#        150
#        13758
#        30867
#        42212
#        56348
#        75090
#        97332
#        115248
#        127354
#        141808
#        156735
#        183276
#        199351
#        218512
#        239960
#
# Disc length: 3357 seconds
#
# Revision: 0
# Processed by: cddbd v1.5.2PL0 Copyright (c) Steve Scherf et al.
# Submitted via: ExactAudioCopy v0.95b4
#
DISCID=d60d1b0f
DTITLE=Miel Cools - Master Series
DYEAR=2005
DGENRE=Ballad
TTITLE0=Boer Bavo
TTITLE1=De Soldaat
TTITLE2=Ballade
TTITLE3=De Vlinder
TTITLE4=Houden Van
TTITLE5=Niet Bang Zijn
TTITLE6=De Nar
TTITLE7=De Vredesduif
TTITLE8=De Zigeuner
TTITLE9=De Troubadours
TTITLE10=Er Was Een Tijd
TTITLE11=Hebban Olla Wogela Nestas
TTITLE12=November
TTITLE13=Ik Weet Het Wel
TTITLE14=De Steenkapper
EXTD=
EXTT0=
EXTT1=
EXTT2=
EXTT3=
EXTT4=
EXTT5=
EXTT6=
EXTT7=
EXTT8=
EXTT9=
EXTT10=
EXTT11=
EXTT12=
EXTT13=
EXTT14=
PLAYORDER=
